<svg xmlns="http://www.w3.org/2000/svg" width="25" height="25" viewBox="0 0 25 25" fill="none">
    <g clipPath="url(#clip0_2_333)">
        <path d="M17.7083 3.125H5.20833C4.05208 3.125 3.125 4.0625 3.125 5.20833V19.7917C3.125 20.9375 4.05208 21.875 5.20833 21.875H19.7917C20.9375 21.875 21.875 20.9375 21.875 19.7917V7.29167L17.7083 3.125ZM19.7917 19.7917H5.20833V5.20833H16.8438L19.7917 8.15625V19.7917ZM12.5 12.5C10.7708 12.5 9.375 13.8958 9.375 15.625C9.375 17.3542 10.7708 18.75 12.5 18.75C14.2292 18.75 15.625 17.3542 15.625 15.625C15.625 13.8958 14.2292 12.5 12.5 12.5ZM6.25 6.25H15.625V10.4167H6.25V6.25Z" fill="white"/>
    </g>
    <defs>
        <clipPath id="clip0_2_333">
        <rect width="25" height="25" fill="white"/>
        </clipPath>
    </defs>
</svg>