<svg xmlns="http://www.w3.org/2000/svg" width="30" height="30" viewBox="0 0 40 40" fill="none">
    <path d="M9.58333 5C9.29219 5.00016 9.00616 5.07657 8.75372 5.22163C8.50129 5.3667 8.29126 5.57535 8.14453 5.82682L5.22786 10.8268C5.07888 11.0817 5.00025 11.3715 5 11.6667V31.6667C5 33.4884 6.51156 35 8.33333 35H31.6667C33.4884 35 35 33.4884 35 31.6667V11.6667C34.9997 11.3715 34.9211 11.0817 34.7721 10.8268L31.8555 5.82682C31.7087 5.57535 31.4987 5.3667 31.2463 5.22163C30.9938 5.07657 30.7078 5.00016 30.4167 5H9.58333ZM10.5404 8.33333H29.4596L31.403 11.6667H8.59701L10.5404 8.33333ZM8.33333 15H31.6667V31.6667H8.33333V15ZM15 18.3333V21.6667H25V18.3333H15Z" fill="black"/>
</svg>