<svg version="1.0" xmlns="http://www.w3.org/2000/svg" width="45" height="45" viewBox="0 0 752 752" preserveAspectRatio="xMidYMid meet">
    <g transform="translate(0.000000,752.000000) scale(0.100000,-0.100000)" fill="#FFF" stroke="none">
        <path d="M3627 6059 c-213 -22 -385 -107 -439 -216 l-23 -48 -3 -717 -3 -717
        -717 -3 -717 -3 -48 -23 c-254 -126 -305 -803 -81 -1079 19 -22 55 -52 81 -65
        l48 -23 717 -3 717 -3 3 -717 3 -717 23 -48 c126 -254 803 -305 1079 -81 22
        19 52 55 65 81 l23 48 3 717 3 717 717 3 717 3 48 23 c254 126 305 803 81
        1079 -19 22 -55 52 -81 65 l-48 23 -717 3 -717 3 -3 717 -3 717 -23 48 c-56
        112 -223 193 -452 217 -107 11 -142 11 -253 -1z"/>
    </g>
</svg>